<svg viewBox="0 0 120 120" fill="none" xmlns="http://www.w3.org/2000/svg">
  <g opacity="0.5">
    <path
      d="M38.1345 50.6205C34.6779 50.6205 31.8853 53.4132 31.8853 56.8697C31.8853 60.3263 34.6779 63.1189 38.1345 63.1189C41.5911 63.1189 44.3837 60.3263 44.3837 56.8697C44.3837 53.4132 41.5911 50.6205 38.1345 50.6205ZM60.0067 50.6205C56.5501 50.6205 53.7575 53.4132 53.7575 56.8697C53.7575 60.3263 56.5501 63.1189 60.0067 63.1189C63.4633 63.1189 66.2559 60.3263 66.2559 56.8697C66.2559 53.4132 63.4633 50.6205 60.0067 50.6205ZM81.8788 50.6205C78.4222 50.6205 75.6296 53.4132 75.6296 56.8697C75.6296 60.3263 78.4222 63.1189 81.8788 63.1189C85.3354 63.1189 88.128 60.3263 88.128 56.8697C88.128 53.4132 85.3354 50.6205 81.8788 50.6205ZM60.0067 16.25C32.3931 16.25 10.0131 34.4312 10.0131 56.8697C10.0131 66.1654 13.8994 74.6799 20.3438 81.5345C17.4341 89.2288 11.3802 95.7514 11.2825 95.8295C9.99362 97.1965 9.6421 99.1885 10.3842 100.907C11.1263 102.626 12.8253 103.739 14.7 103.739C26.7102 103.739 36.1816 98.7198 41.8645 94.6969C47.5083 96.474 53.6012 97.4895 60.0067 97.4895C87.6203 97.4895 110 79.3082 110 56.8697C110 34.4312 87.6203 16.25 60.0067 16.25ZM60.0067 88.1157C54.7925 88.1157 49.6369 87.315 44.6962 85.7527L40.2631 84.3466L36.455 87.0416C33.6624 89.014 29.8348 91.2208 25.226 92.7049C26.6516 90.342 28.0382 87.6861 29.1122 84.8544L31.1823 79.3668L27.1594 75.1096C23.6247 71.3405 19.3869 65.1109 19.3869 56.8697C19.3869 39.6454 37.6072 25.6238 60.0067 25.6238C82.4061 25.6238 100.626 39.6454 100.626 56.8697C100.626 74.0941 82.4061 88.1157 60.0067 88.1157Z"
      fill="url(#paint0_linear_2610_20493)"
    />
  </g>
  <defs>
    <linearGradient id="paint0_linear_2610_20493" x1="10.0002" y1="21.0013" x2="109.99" y2="104.003" gradientUnits="userSpaceOnUse">
      <stop stop-color="#5541D7" />
      <stop offset="1" stop-color="#E30052" />
    </linearGradient>
  </defs>
</svg>