<svg viewBox="0 0 250 250" fill="none" xmlns="http://www.w3.org/2000/svg">
  <path
    fill-rule="evenodd"
    clip-rule="evenodd"
    d="M43.3025 68.6988C44.0507 68.6988 44.7889 68.741 45.5158 68.8208C45.5158 68.78 45.5143 68.7395 45.5143 68.6988C45.5143 46.5485 63.4707 28.592 85.621 28.592C102.044 28.592 116.159 38.465 122.362 52.5979C123.935 52.3271 125.552 52.1842 127.202 52.1842C142.838 52.1842 155.513 64.8594 155.513 80.4948C155.513 96.1303 142.838 108.805 127.202 108.805H43.3025C32.2273 108.805 23.2493 99.8272 23.2493 88.752C23.2493 77.677 32.2273 68.6988 43.3025 68.6988Z"
    fill="#F8F6FC"
  />
  <path
    fill-rule="evenodd"
    clip-rule="evenodd"
    d="M203.737 133.602C202.46 133.602 201.199 133.674 199.959 133.811C199.959 133.741 199.961 133.672 199.961 133.602C199.961 95.7941 169.312 65.1448 131.504 65.1448C103.472 65.1448 79.3786 81.9966 68.7918 106.12C66.1069 105.658 63.347 105.414 60.5299 105.414C33.8418 105.414 12.207 127.049 12.207 153.737C12.207 180.425 33.8418 202.06 60.5299 202.06H203.737C222.641 202.06 237.965 186.735 237.965 167.831C237.965 148.927 222.641 133.602 203.737 133.602Z"
    fill="#E2EEF7"
  />
  <path
    fill-rule="evenodd"
    clip-rule="evenodd"
    d="M220.703 186.938C220.067 186.938 219.44 186.974 218.822 187.042C218.822 187.007 218.824 186.973 218.824 186.938C218.824 168.084 203.569 152.799 184.751 152.799C170.799 152.799 158.808 161.203 153.539 173.233C152.202 173.003 150.829 172.881 149.427 172.881C136.144 172.881 125.376 183.67 125.376 196.979C125.376 210.288 136.144 221.077 149.427 221.077H220.703C230.111 221.077 237.739 213.435 237.739 204.007C237.739 194.58 230.111 186.938 220.703 186.938Z"
    fill="#F8F6FC"
  />
</svg>