<svg viewBox="0 0 20 20" fill="inherit" xmlns="http://www.w3.org/2000/svg">
  <path d="M18.0879 1.91109C18.3111 2.13429 18.389 2.46443 18.2892 2.76387L13.2892 17.7639C13.1826 18.0836 12.8939 18.3077 12.5577 18.3316C12.2215 18.3555 11.904 18.1745 11.7533 17.873L8.54416 11.4548L2.12595 8.2457C1.82448 8.09497 1.6435 7.77748 1.66739 7.44127C1.69128 7.10507 1.91535 6.81636 2.2351 6.70978L17.2351 1.70978C17.5345 1.60996 17.8647 1.6879 18.0879 1.91109ZM10.1793 10.9982L12.3443 15.3282L15.5918 5.58573L10.1793 10.9982ZM14.4132 4.40722L4.67075 7.65472L9.00075 9.81971L14.4132 4.40722Z" fill="inherit"/>
</svg>
