<svg viewBox="0 0 11 11" fill="none" xmlns="http://www.w3.org/2000/svg">
  <path d="M1.99905 1V0H2.99905V1L3.99905 1V2H2.99905V3H1.99905V2H0.999049V1L1.99905 1ZM8.99905 1V0H9.99905V1L10.999 1V2H9.99905V3H8.99905V2H7.99905V1L8.99905 1ZM6.44882 2.2929L8.57015 4.41422L2.91325 10.071L0.791931 7.94972L6.44882 2.2929ZM6.44879 5.1213L7.15592 4.41421L6.44881 3.7071L5.74169 4.41419L6.44879 5.1213ZM5.03457 5.12129L2.20615 7.94972L2.91325 8.65683L5.74168 5.8284L5.03457 5.12129ZM8.99905 8V7H9.99905V8H10.999V9H9.99905V10H8.99905V9H7.99905V8H8.99905Z" fill="white"/>
</svg>
