<svg viewBox="0 0 14 14" fill="none" xmlns="http://www.w3.org/2000/svg">
  <path d="M0.332031 0.999674C0.332031 0.631485 0.630508 0.333008 0.998698 0.333008H4.99936C5.79547 0.333008 6.51016 0.682103 6.9987 1.23554C7.48723 0.682103 8.20193 0.333008 8.99803 0.333008H12.9987C13.3669 0.333008 13.6654 0.631485 13.6654 0.999674V10.999C13.6654 11.3672 13.3669 11.6657 12.9987 11.6657H8.9987C8.26155 11.6657 7.66536 12.2619 7.66536 12.999C7.66536 13.3672 7.36689 13.6657 6.9987 13.6657C6.63051 13.6657 6.33203 13.3672 6.33203 12.999C6.33203 12.2619 5.73584 11.6657 4.9987 11.6657H0.998698C0.630508 11.6657 0.332031 11.3672 0.332031 10.999V0.999674ZM6.33203 10.6887V2.99901C6.33203 2.2632 5.73517 1.66634 4.99936 1.66634H1.66536V10.3323H4.9987C5.48453 10.3323 5.93987 10.462 6.33203 10.6887ZM7.66536 10.6887C8.05752 10.462 8.51287 10.3323 8.9987 10.3323H12.332V1.66634H8.99803C8.26222 1.66634 7.66536 2.2632 7.66536 2.99901V10.6887Z" fill="white"/>
</svg>
