<svg viewBox="0 0 18 18" fill="none" xmlns="http://www.w3.org/2000/svg">
<path d="M2.4697 17.333L17.3318 17.333L17.3318 8.16634L12.8734 8.16634L9.54007 0.666341L8.99851 0.666341C7.84168 0.666341 6.99636 0.990966 6.43234 1.51321C5.8808 2.02389 5.66518 2.66502 5.66518 3.16634L5.66518 6.49967L0.499999 6.49967L2.4697 17.333ZM13.1652 9.83301L15.6652 9.83301L15.6652 15.6663L13.1652 15.6663L13.1652 9.83301ZM11.4985 15.6663L3.86066 15.6663L2.49702 8.16634L7.33184 8.16634L7.33184 3.16634C7.33184 3.11211 7.36622 2.91991 7.56468 2.73614C7.70682 2.60454 7.97668 2.43864 8.47238 2.36772L11.4985 9.17652L11.4985 15.6663Z" fill="#315357"/>
</svg>
