<svgviewBox="0 0 20 20" fill="none" xmlns="http://www.w3.org/2000/svg">
<path fill-rule="evenodd" clip-rule="evenodd" d="M8.74837 4.99967C5.75683 4.99967 3.33171 7.4248 3.33171 10.4163C3.33171 13.4079 5.75683 15.833 8.74837 15.833C9.96897 15.833 11.0931 15.4303 11.9984 14.7501L12.9995 16.0826C11.8155 16.9722 10.3423 17.4997 8.74837 17.4997C4.83636 17.4997 1.66504 14.3284 1.66504 10.4163C1.66504 6.50432 4.83636 3.33301 8.74837 3.33301C12.502 3.33301 15.5732 6.25229 15.8162 9.94494C15.8265 10.1009 15.8317 10.2581 15.8317 10.4163V11.3212L16.9091 10.2438L18.0876 11.4223L14.9984 14.5115L11.9091 11.4223L13.0876 10.2438L14.165 11.3212V10.4163C14.165 10.2946 14.161 10.1739 14.1532 10.0544C13.9674 7.23203 11.6182 4.99967 8.74837 4.99967Z" fill="#161513"/>
</svg>
