<svg viewBox="0 0 20 20" fill="none" xmlns="http://www.w3.org/2000/svg">
<path d="M7.49837 1.66699H12.4984V3.8206C12.5326 3.83436 12.5668 3.84841 12.6008 3.86273L14.1234 2.34015L17.6585 5.87533L16.136 7.39791C16.1503 7.43192 16.1643 7.46606 16.1781 7.50033H18.3317V12.5003H16.1786C16.1649 12.5345 16.1509 12.5686 16.1366 12.6025L17.6595 14.1254L14.1233 17.6604L12.6008 16.1379C12.5668 16.1522 12.5326 16.1663 12.4984 16.1801V18.3337H7.49837V16.1801C7.46411 16.1663 7.42997 16.1522 7.39596 16.1379L5.87337 17.6605L2.33819 14.1253L3.86078 12.6027C3.84645 12.5687 3.83241 12.5346 3.81865 12.5003H1.66504V7.50033H3.81865C3.83241 7.46606 3.84645 7.43192 3.86078 7.39791L2.33819 5.87533L5.87337 2.34015L7.39596 3.86273C7.42997 3.84841 7.46411 3.83436 7.49837 3.8206V1.66699ZM9.16504 3.33366V5.03394L8.5688 5.21089C8.23454 5.31009 7.91667 5.44082 7.62033 5.60137L7.07371 5.89751L5.87337 4.69717L4.69522 5.87533L5.89556 7.07567L5.59942 7.62228C5.43887 7.91863 5.30813 8.2365 5.20893 8.57075L5.03198 9.16699H3.33171V10.8337H5.03198L5.20893 11.4299C5.30813 11.7642 5.43887 12.082 5.59942 12.3784L5.89556 12.925L4.69522 14.1253L5.87337 15.3035L7.07371 14.1031L7.62033 14.3993C7.91667 14.5598 8.23454 14.6906 8.5688 14.7898L9.16504 14.9667V16.667H10.8317V14.9667L11.4279 14.7898C11.7622 14.6906 12.0801 14.5598 12.3764 14.3993L12.923 14.1031L14.1235 15.3036L15.3023 14.1252L14.102 12.925L14.3982 12.3784C14.5582 12.0829 14.6885 11.7648 14.7891 11.4283L14.9669 10.8337H16.665V9.16699H14.9648L14.7878 8.57075C14.6886 8.23649 14.5579 7.91863 14.3973 7.62228L14.1012 7.07567L15.3015 5.87533L14.1234 4.69717L12.923 5.89751L12.3764 5.60137C12.0801 5.44082 11.7622 5.31009 11.4279 5.21089L10.8317 5.03394V3.33366H9.16504ZM9.99837 9.16699C9.53813 9.16699 9.16504 9.54009 9.16504 10.0003C9.16504 10.4606 9.53813 10.8337 9.99837 10.8337C10.4586 10.8337 10.8317 10.4606 10.8317 10.0003C10.8317 9.54009 10.4586 9.16699 9.99837 9.16699ZM7.49837 10.0003C7.49837 8.61961 8.61766 7.50033 9.99837 7.50033C11.3791 7.50033 12.4984 8.61961 12.4984 10.0003C12.4984 11.381 11.3791 12.5003 9.99837 12.5003C8.61766 12.5003 7.49837 11.381 7.49837 10.0003Z" fill="#161513"/>
</svg>
