<svg viewBox="0 0 10 10" fill="none" xmlns="http://www.w3.org/2000/svg">
  <path
    d="M4.99908 1C4.17066 1 3.49908 1.67157 3.49908 2.5C3.49908 3.32843 4.17066 4 4.99908 4C5.82751 4 6.49908 3.32843 6.49908 2.5C6.49908 1.67157 5.82751 1 4.99908 1ZM2.49908 2.5C2.49908 1.11929 3.61837 0 4.99908 0C6.3798 0 7.49908 1.11929 7.49908 2.5C7.49908 3.88071 6.3798 5 4.99908 5C3.61837 5 2.49908 3.88071 2.49908 2.5ZM2.25021 7.7603C1.73868 8.19217 1.49908 8.79175 1.49908 9.5V10H0.499084V9.5C0.499084 8.55025 0.830922 7.64983 1.6051 6.9962C2.36842 6.35175 3.49921 6 4.99908 6C6.49896 6 7.62975 6.35175 8.39307 6.9962C9.16725 7.64983 9.49908 8.55025 9.49908 9.5V10H8.49908V9.5C8.49908 8.79175 8.25949 8.19217 7.74796 7.7603C7.22556 7.31925 6.35635 7 4.99908 7C3.64182 7 2.77261 7.31925 2.25021 7.7603Z"
    fill="white"
  />
</svg>