<svg  viewBox="0 0 18 20" fill="none" xmlns="http://www.w3.org/2000/svg" fill="#161513">
  <path d="M-0.00195312 0H10.4123L15.998 5.58579V8H13.998V7H8.99805V2H1.99805V18H13.998V17H15.998V20H-0.00195312V0ZM10.998 3.41421V5H12.5838L10.998 3.41421Z" fill="#161513"/>
  <path d="M8.35764 15L6.56204 10.1291H7.74124L8.88024 13.7136L10.0326 10.1291H11.1649L9.36934 15H8.35764Z" fill="#161513"/>
  <path d="M11.6887 15V10.1291H12.7339V15H11.6887Z" fill="#161513"/>
  <path d="M13.6843 15V10.1291H15.3191C16.1142 10.1291 16.7149 10.3346 17.1214 10.7455C17.5279 11.1564 17.7311 11.7639 17.7311 12.5679C17.7311 13.363 17.5279 13.9682 17.1214 14.3836C16.7194 14.7945 16.1186 15 15.3191 15H13.6843ZM15.3057 10.98H14.7295V14.1491H15.3057C15.7568 14.1491 16.0918 14.0218 16.3107 13.7672C16.534 13.5081 16.6457 13.1084 16.6457 12.5679C16.6457 12.0274 16.5363 11.6277 16.3174 11.3686C16.0985 11.1095 15.7613 10.98 15.3057 10.98Z" fill="#161513"/>
</svg>
