<svg  viewBox="0 0 24 24" fill="none" xmlns="http://www.w3.org/2000/svg">
  <path d="M11.9983 22C8.1323 22 4.99829 18.866 4.99829 15L4.99829 7C4.99829 4.23858 7.23687 2 9.99829 2C12.7597 2 14.9983 4.23858 14.9983 7V15C14.9983 16.6569 13.6551 18 11.9983 18C10.3414 18 8.99829 16.6569 8.99829 15L8.99829 9H10.9983L10.9983 15C10.9983 15.5523 11.446 16 11.9983 16C12.5506 16 12.9983 15.5523 12.9983 15V7C12.9983 5.34315 11.6551 4 9.99829 4C8.34144 4 6.99829 5.34315 6.99829 7L6.99829 15C6.99829 17.7614 9.23687 20 11.9983 20C14.7597 20 16.9983 17.7614 16.9983 15V5L18.9983 5V15C18.9983 18.866 15.8643 22 11.9983 22Z" fill="#161513"/>
</svg>
