<svg  fill="none" xmlns="http://www.w3.org/2000/svg">
  <path d="M4.83171 2.33341V0.666748H6.49837V2.33341H11.4984V0.666748H13.165V2.33341H17.3317V17.3334H0.665039V2.33341H4.83171ZM4.83171 4.00008H2.33171V15.6667H15.665V4.00008H13.165V5.66675H11.4984V4.00008H6.49837V5.66675H4.83171V4.00008ZM4.83171 9.00008H3.16504V7.33342H4.83171V9.00008ZM7.33171 7.33342V9.00008H5.66504V7.33342H7.33171ZM9.83171 9.00008H8.16504V7.33342H9.83171V9.00008ZM12.3317 7.33342V9.00008H10.665V7.33342H12.3317ZM14.8317 9.00008H13.165V7.33342H14.8317V9.00008ZM4.83171 11.5001H3.16504V9.83342H4.83171V11.5001ZM7.33171 9.83342V11.5001H5.66504V9.83342H7.33171ZM9.83171 11.5001H8.16504V9.83342H9.83171V11.5001ZM12.3317 9.83342V11.5001H10.665V9.83342H12.3317ZM14.8317 11.5001H13.165V9.83342H14.8317V11.5001ZM4.83171 14.0001H3.16504V12.3334H4.83171V14.0001ZM7.33171 12.3334V14.0001H5.66504V12.3334H7.33171ZM9.83171 14.0001H8.16504V12.3334H9.83171V14.0001ZM12.3317 12.3334V14.0001H10.665V12.3334H12.3317ZM14.8317 14.0001H13.165V12.3334H14.8317V14.0001Z" fill="#161513" fill-opacity="0.7"/>
</svg>
