<svg width="16" height="18" viewBox="0 0 16 18" fill="none" xmlns="http://www.w3.org/2000/svg">
  <path d="M0.331238 0.666992H9.00975L13.6646 5.32181V7.33366H11.9979V6.50033H7.83124V2.33366H1.9979V15.667H11.9979V14.8337H13.6646V17.3337H0.331238V0.666992ZM9.4979 3.51217V4.83366H10.8194L9.4979 3.51217Z" fill="#161513" fill-opacity="0.7"/>
  <path d="M5.04081 13.167V9.10791H6.49247C6.99125 9.10791 7.36719 9.2233 7.62031 9.45408C7.87714 9.68485 8.00556 10.0273 8.00556 10.4814C8.00556 10.9318 7.87714 11.2742 7.62031 11.5087C7.36719 11.7395 6.99125 11.8549 6.49247 11.8549H5.90622V13.167H5.04081ZM6.31381 9.81699H5.90622V11.1458H6.31381C6.61158 11.1458 6.82189 11.0956 6.94472 10.9951C7.07128 10.8909 7.13456 10.7196 7.13456 10.4814C7.13456 10.2395 7.07128 10.0682 6.94472 9.96774C6.82189 9.86724 6.61158 9.81699 6.31381 9.81699Z" fill="#161513" fill-opacity="0.7"/>
  <path d="M8.5413 13.167V9.10791H9.90363C10.5662 9.10791 11.0668 9.27913 11.4055 9.62158C11.7443 9.96402 11.9136 10.4702 11.9136 11.1402C11.9136 11.8028 11.7443 12.3072 11.4055 12.6533C11.0705 12.9958 10.5699 13.167 9.90363 13.167H8.5413ZM9.89246 9.81699H9.4123V12.4579H9.89246C10.2684 12.4579 10.5476 12.3518 10.73 12.1397C10.9161 11.9238 11.0091 11.5906 11.0091 11.1402C11.0091 10.6899 10.9179 10.3567 10.7355 10.1408C10.5532 9.92494 10.2721 9.81699 9.89246 9.81699Z" fill="#161513" fill-opacity="0.7"/>
  <path d="M12.5325 13.167V9.10791H15.1232V9.84491H13.4035V10.8667H14.9278V11.6037H13.4035V13.167H12.5325Z" fill="#161513" fill-opacity="0.7"/>
</svg>
