<svg viewBox="0 0 60 60" fill="none" xmlns="http://www.w3.org/2000/svg">
  <path fill-rule="evenodd" clip-rule="evenodd" d="M32.5385 24.2884C32.077 23.8268 31.3847 23.8268 30.9231 24.2884L3.3462 51.8653C1.96159 53.2499 1.96159 55.3269 3.3462 56.7115C4.73082 58.0961 6.80774 58.0961 8.19235 56.7115L35.7693 29.1345C36.2308 28.673 36.2308 27.9807 35.7693 27.5192L32.5385 24.2884ZM40.6154 24.2884L44.3077 20.5961C45 19.9038 45 18.8653 44.3077 18.173L41.8847 15.7499C41.1924 15.0576 40.1539 15.0576 39.4616 15.7499L35.7693 19.4422C35.3077 19.9038 35.3077 20.5961 35.7693 21.0576L39 24.2884C39.4616 24.7499 40.1539 24.7499 40.6154 24.2884ZM12 13.4422C16.3847 14.8268 19.8462 18.173 21.2308 22.673C21.4616 23.3653 22.3847 23.3653 22.6154 22.673C24 18.2884 27.3462 14.8268 31.8462 13.4422C32.5385 13.2115 32.5385 12.2884 31.8462 12.0576C27.4616 10.673 24 7.32685 22.6154 2.82685C22.3847 2.13454 21.4616 2.13454 21.2308 2.82685C19.8462 7.21146 16.5 10.673 12 12.0576C11.4231 12.2884 11.4231 13.2115 12 13.4422ZM57.2308 35.2499C53.3077 33.9807 50.3077 30.9807 49.0385 27.0576C48.8077 26.4807 48 26.4807 47.7693 27.0576C46.5 30.9807 43.5 33.9807 39.577 35.2499C39 35.4807 39 36.2884 39.577 36.5192C43.5 37.7884 46.5 40.7884 47.7693 44.7115C48 45.2884 48.8077 45.2884 49.0385 44.7115C50.3077 40.7884 53.3077 37.7884 57.2308 36.5192C57.8077 36.2884 57.8077 35.3653 57.2308 35.2499ZM44.1924 9.74993C47.1924 10.673 49.3847 12.8653 50.3077 15.8653C50.4231 16.3268 51.1154 16.3268 51.2308 15.8653C52.1539 12.8653 54.3462 10.673 57.3462 9.74993C57.8077 9.63454 57.8077 8.94223 57.3462 8.82685C54.3462 7.90377 52.1539 5.71146 51.2308 2.71146C51.1154 2.24992 50.4231 2.24992 50.3077 2.71146C49.3847 5.71146 47.1924 7.90377 44.1924 8.82685C43.7308 8.94223 43.7308 9.63454 44.1924 9.74993Z" fill="white"/>
</svg>
