<svg viewBox="0 0 56 56" fill="none" xmlns="http://www.w3.org/2000/svg">
<path fill-rule="evenodd" clip-rule="evenodd" d="M18.3365 40.2595C19.0288 40.9518 20.0673 40.8365 20.7596 40.2595L32.2981 28.7211C33.1058 27.9134 34.4904 27.798 35.5288 28.7211C36.5673 29.6442 36.4519 31.2595 35.5288 32.1826L21.3365 46.1442C18.2211 49.2595 13.0288 49.2595 9.91345 46.1442L9.79806 46.0288C6.68268 42.9134 6.68268 37.7211 9.79806 34.6057L34.8365 9.56723C37.9519 6.45185 43.1442 6.45185 46.2596 9.56723L46.375 9.68262C49.4904 12.798 49.4904 17.9903 46.375 21.1057L46.2596 21.2211C45.6827 21.798 45.5673 22.6057 46.0288 23.298C46.7211 24.5672 47.2981 25.9518 47.6442 27.3365C47.875 28.2595 48.9134 28.4903 49.6058 27.9134C50.5288 26.9903 51.3365 26.0672 51.3365 26.0672C57.2211 20.1826 57.2211 10.6057 51.3365 4.72108H51.1058C45.2211 -1.16354 35.6442 -1.16354 29.7596 4.72108L4.72114 29.6442C-1.16348 35.5288 -1.16348 45.1057 4.72114 50.9903L4.95191 51.2211C10.8365 57.1057 20.2981 57.1057 26.1827 51.2211L40.4904 37.0288C44.1827 33.3365 44.0673 27.3365 40.2596 23.6442C36.5673 20.0672 30.5673 20.298 26.9904 23.9903L15.6827 35.298C14.9904 35.9903 14.9904 37.1442 15.6827 37.8365L18.3365 40.2595Z" fill="#706E6B"/>
</svg>
