<svg viewBox="0 0 52 56" fill="none" xmlns="http://www.w3.org/2000/svg">
  <path fill-rule="evenodd" clip-rule="evenodd" d="M16.0769 11.3845H36.0384C37.0769 11.3845 37.8846 10.5768 37.8846 9.53839V5.84608C37.8846 2.84608 35.4615 0.307617 32.4615 0.307617H19.7692C16.7692 0.307617 14.3461 2.84608 14.3461 5.84608V9.53839C14.2307 10.5768 15.0384 11.3845 16.0769 11.3845ZM45.9615 4.923H44.1154C43.5384 4.923 43.1923 5.26916 43.1923 5.84608V9.53839C43.1923 13.5768 39.9615 16.923 35.9231 16.923H16.0769C12.0384 16.923 8.80766 13.5768 8.80766 9.53839V5.84608C8.80766 5.26916 8.46151 4.923 7.88459 4.923H6.03843C3.03843 4.923 0.615356 7.46146 0.615356 10.4615V50.1538C0.615356 53.1538 3.03843 55.6922 6.03843 55.6922H45.9615C48.9615 55.6922 51.3846 53.1538 51.3846 50.1538V10.4615C51.3846 7.46146 48.9615 4.923 45.9615 4.923Z" fill="#706E6B"/>
</svg>
