<svg viewBox="0 0 52 52" fill="none" xmlns="http://www.w3.org/2000/svg">
  <path fill-rule="evenodd" clip-rule="evenodd" d="M9.84613 30.0386V6.38471C9.84613 3.84625 7.7692 1.76932 5.23074 1.76932H2.34613C1.42305 1.76932 0.615356 2.57702 0.615356 3.50009V30.0386C0.615356 30.9616 1.42305 31.7693 2.34613 31.7693H8.11536C9.03843 31.7693 9.84613 30.9616 9.84613 30.0386ZM51.3846 26.0001V11.577C51.3846 1.53856 43.423 0.615479 34.7692 0.615479C26.5769 0.615479 23.923 3.73086 16.0769 4.07702C15.1538 4.07702 14.4615 4.88471 14.4615 5.80779V28.8847C14.4615 29.8078 15.2692 30.6155 16.1923 30.6155C21.7307 30.6155 26 36.6155 26 42.7309V49.6539C26 50.577 26.8077 51.3847 27.7307 51.3847H30.6154C33.1538 51.3847 35.2307 49.3078 35.2307 46.7693V35.2309C35.2307 32.6924 37.3077 30.6155 39.8461 30.6155H46.7692C49.3077 30.6155 51.3846 28.5386 51.3846 26.0001Z" fill="#706E6B"/>
</svg>
