<svg viewBox="0 0 16 16" fill="none" xmlns="http://www.w3.org/2000/svg">
  <path fill-rule="evenodd" clip-rule="evenodd" d="M14.3395 1.23096H13.4164C13.1702 1.23096 12.9548 1.44634 12.9548 1.6925V3.84634C12.9548 4.12326 12.801 4.24634 12.5856 4.06173C12.4933 3.93865 12.401 3.84634 12.2779 3.75403C10.7395 2.21557 8.58561 1.56942 6.37022 2.00019C5.60099 2.15403 4.86253 2.46173 4.21638 2.8925C2.33946 4.12326 1.26253 6.12326 1.23176 8.27711C1.20099 9.93865 1.84715 11.6002 3.01638 12.8002C4.24715 14.0925 5.90869 14.8002 7.6933 14.8002C9.26253 14.8002 10.7395 14.2463 11.9087 13.2617C12.1241 13.0771 12.1241 12.7694 11.9395 12.5848L11.2933 11.9386C11.1395 11.7848 10.8625 11.754 10.6779 11.9079C9.57022 12.831 8.06253 13.2002 6.55484 12.831C6.15484 12.7386 5.75484 12.554 5.38561 12.3386C3.63176 11.2617 2.80099 9.23096 3.2933 7.20019C3.38561 6.80019 3.57023 6.40019 3.78561 6.03096C4.64715 4.52326 6.15484 3.6925 7.75484 3.6925C8.98561 3.6925 10.1548 4.1848 11.0164 5.04634C11.1702 5.16942 11.2933 5.32326 11.3856 5.47711C11.4779 5.72326 11.2625 5.84634 10.9856 5.84634H8.83176C8.58561 5.84634 8.37022 6.06173 8.37022 6.30788V7.26173C8.37022 7.50788 8.55484 7.6925 8.80099 7.6925H14.4318C14.6471 7.6925 14.8318 7.50788 14.8318 7.2925V1.6925C14.801 1.44634 14.5856 1.23096 14.3395 1.23096V1.23096Z" fill="#706E6B"/>
</svg>
