<svg  viewBox="0 0 56 56" fill="none" xmlns="http://www.w3.org/2000/svg">
  <path fill-rule="evenodd" clip-rule="evenodd" d="M55.6924 47.6153V50.1538C55.6924 53.1538 53.1539 55.6922 50.1539 55.6922H5.8462C2.8462 55.6922 0.307739 53.1538 0.307739 50.1538V47.6153C0.307739 40.923 8.15389 36.7692 15.5385 33.5384L16.2308 33.1922C16.8077 32.9615 17.3847 32.9615 17.9616 33.3076C20.9616 35.2692 24.3077 36.3076 27.8847 36.3076C31.4616 36.3076 34.9231 35.1538 37.8077 33.3076C38.3847 32.9615 38.9616 32.9615 39.5385 33.1922L40.2308 33.5384C47.8462 36.7692 55.6924 40.8076 55.6924 47.6153ZM28 0.307617C35.6154 0.307617 41.7308 7.11531 41.7308 15.5384C41.7308 23.9615 35.6154 30.7692 28 30.7692C20.3847 30.7692 14.2693 23.9615 14.2693 15.5384C14.2693 7.11531 20.3847 0.307617 28 0.307617Z" fill="#fff"/>
</svg>
