<svg viewBox="0 0 20 20" fill="none" xmlns="http://www.w3.org/2000/svg">
  <path fill-rule="evenodd" clip-rule="evenodd" d="M9.99805 2C5.57977 2 1.99805 5.58172 1.99805 10C1.99805 14.4183 5.57977 18 9.99805 18C14.4163 18 17.998 14.4183 17.998 10C17.998 5.58172 14.4163 2 9.99805 2ZM-0.00195312 10C-0.00195312 4.47715 4.4752 0 9.99805 0C15.5209 0 19.998 4.47715 19.998 10C19.998 15.5228 15.5209 20 9.99805 20C4.4752 20 -0.00195312 15.5228 -0.00195312 10ZM7.99805 8H5.99805V6H7.99805V8ZM13.998 8H11.998V6H13.998V8ZM9.26931 13.0705C8.16358 13.2772 7.26163 14.0042 6.7874 14.614L5.20869 13.3861C5.90113 12.4958 7.19918 11.4228 8.90179 11.1045C10.6767 10.7727 12.7074 11.2952 14.7052 13.2929L13.2909 14.7071C11.6887 13.1048 10.3027 12.8773 9.26931 13.0705Z" fill="#FF5660"/>
</svg>
