<svg viewBox="0 0 100 100" fill="none" xmlns="http://www.w3.org/2000/svg">
  <g opacity="0.5">
    <path
      d="M49.1602 24.9199C51.2109 26.9707 53.9844 28.123 56.8945 28.123H87.5C89.2188 28.123 90.625 29.5293 90.625 31.248V37.498H9.375V18.748C9.375 17.0293 10.7812 15.623 12.5 15.623H38.5742C39.3945 15.623 40.1953 15.9551 40.7813 16.541L49.1602 24.9199ZM9.375 46.873H90.625V81.2481C90.625 82.9668 89.2188 84.3731 87.5 84.3731H12.5C10.7812 84.3731 9.375 82.9668 9.375 81.2481V46.873ZM55.8008 18.2988L47.4023 9.90039C45.0586 7.55664 41.875 6.24805 38.5547 6.24805H12.5C5.60547 6.24805 0 11.8535 0 18.748V81.2481C0 88.1426 5.60547 93.7481 12.5 93.7481H87.5C94.3945 93.7481 100 88.1426 100 81.2481V31.248C100 24.3535 94.3945 18.748 87.5 18.748H56.8945C56.4844 18.748 56.0742 18.5918 55.7813 18.2988H55.8008Z"
      fill="url(#paint0_linear_2608_20488)"
    />
  </g>
  <defs>
    <linearGradient id="paint0_linear_2608_20488" x1="-8.5783e-07" y1="11" x2="100" y2="94" gradientUnits="userSpaceOnUse">
      <stop stop-color="#5541D7" />
      <stop offset="1" stop-color="#E30052" />
    </linearGradient>
  </defs>
</svg>