<svg viewBox="0 0 20 20" fill="none" xmlns="http://www.w3.org/2000/svg">
  <path d="M9.99805 2C5.57977 2 1.99805 5.58172 1.99805 10C1.99805 14.4183 5.57977 18 9.99805 18C14.4163 18 17.998 14.4183 17.998 10C17.998 5.58172 14.4163 2 9.99805 2ZM-0.00195312 10C-0.00195312 4.47715 4.4752 0 9.99805 0C15.5209 0 19.998 4.47715 19.998 10C19.998 15.5228 15.5209 20 9.99805 20C4.4752 20 -0.00195312 15.5228 -0.00195312 10ZM7.99805 8H5.99805V6H7.99805V8ZM13.998 8H11.998V6H13.998V8ZM4.99805 10H14.998V11C14.998 12.2351 14.7209 13.508 13.8799 14.482C13.0153 15.4834 11.7029 16 9.99805 16C8.29318 16 6.98079 15.4834 6.11615 14.482C5.27519 13.508 4.99805 12.2351 4.99805 11V10ZM7.09194 12C7.19354 12.4884 7.37581 12.8806 7.62995 13.1749C8.0153 13.6212 8.70292 14 9.99805 14C11.2932 14 11.9808 13.6212 12.3661 13.1749C12.6203 12.8806 12.8026 12.4884 12.9042 12H7.09194Z" fill="#22683E"/>
</svg>
