<svg width="22" height="25" viewBox="0 0 22 25" fill="none" xmlns="http://www.w3.org/2000/svg">
  <path
    fill="#6840c280"
    fill-rule="evenodd"
    clip-rule="evenodd"
    d="M14.9505 0.401232C15.7185 -0.0772093 16.6093 0.802795 16.1402 1.57656C15.8775 2.00998 16.0448 2.57544 16.5011 2.79613L16.9606 3.01838C17.8992 3.47239 17.9691 4.78283 17.0841 5.33416L15.365 6.40514C14.597 6.88358 13.7062 6.00358 14.1752 5.22981C14.438 4.7964 14.2707 4.23093 13.8144 4.01024L13.3549 3.78799C12.4163 3.33398 12.3464 2.02354 13.2313 1.47222L14.9505 0.401232ZM6.83712 2.23441C6.33994 1.99393 5.74195 2.20202 5.50147 2.69919L1.37524 11.2297L1.34582 11.29C-0.818538 15.7646 1.05427 21.1465 5.52884 23.3108C10.0034 25.4752 15.3853 23.6024 17.5497 19.1278L17.5497 19.1278L17.5497 19.1278L21.705 10.5372C21.9455 10.04 21.7374 9.44202 21.2402 9.20153L17.2536 7.27318C16.7564 7.0327 16.1584 7.24079 15.9179 7.73796L11.7626 16.3286L11.7717 16.333L11.7717 16.333C11.1509 17.6165 9.60714 18.1537 8.32365 17.5329C7.04016 16.912 6.50297 15.3683 7.12379 14.0848L7.12383 14.0847L6.43857 13.7533L6.43867 13.7531L7.13327 14.089L11.2886 5.49842C11.529 5.00124 11.321 4.40325 10.8238 4.16276L6.83712 2.23441Z"
  />
</svg>