<svg viewBox="0 0 20 20" fill="none" xmlns="http://www.w3.org/2000/svg">
  <path fill-rule="evenodd" clip-rule="evenodd" d="M9.99805 2C5.57977 2 1.99805 5.58172 1.99805 10C1.99805 14.4183 5.57977 18 9.99805 18C14.4163 18 17.998 14.4183 17.998 10C17.998 5.58172 14.4163 2 9.99805 2ZM-0.00195312 10C-0.00195312 4.47715 4.4752 0 9.99805 0C15.5209 0 19.998 4.47715 19.998 10C19.998 15.5228 15.5209 20 9.99805 20C4.4752 20 -0.00195312 15.5228 -0.00195312 10ZM7.99805 8H5.99805V6H7.99805V8ZM13.998 8H11.998V6H13.998V8ZM10.7268 12.9418C11.8325 12.7351 12.7345 12.008 13.2087 11.3983L14.7874 12.6262C14.095 13.5165 12.7969 14.5894 11.0943 14.9077C9.31939 15.2395 7.28866 14.7171 5.29094 12.7194L6.70515 11.3051C8.30743 12.9074 9.69337 13.135 10.7268 12.9418Z" fill="#514F4D"/>
</svg>
