<svg
  fill="none"
  xmlns="http://www.w3.org/2000/svg"
  xmlns:xlink="http://www.w3.org/1999/xlink"
  viewBox="0 0 32 35"
  preserveAspectRatio="xMidYMid meet"
>
  <path
    fill-rule="evenodd"
    clip-rule="evenodd"
    d="M21.104 0.383852C22.2042 -0.301557 23.4804 0.959126 22.8084 2.06762C22.4321 2.68852 22.6717 3.4986 23.3254 3.81475L23.9836 4.13315C25.3283 4.78356 25.4284 6.66088 24.1606 7.4507L21.6978 8.98497C20.5976 9.67038 19.3215 8.4097 19.9934 7.30121C20.3698 6.68031 20.1301 5.87023 19.4765 5.55408L18.8182 5.23568C17.4736 4.58527 17.3734 2.70795 18.6412 1.91813L21.104 0.383852ZM9.09158 2.8218C8.5944 2.58132 7.99641 2.78941 7.75592 3.28658L1.65647 15.8966C1.64231 15.9253 1.62825 15.9541 1.61429 15.983C-1.48634 22.3932 1.19661 30.1032 7.60683 33.2039C14.017 36.3045 21.7271 33.6215 24.8277 27.2113L24.8278 27.2112L24.828 27.2112L30.9692 14.515C31.2097 14.0178 31.0016 13.4198 30.5044 13.1793L24.0143 10.0401C23.5171 9.79961 22.9191 10.0077 22.6787 10.5049L16.5375 23.2011L17.5315 23.6819L17.5313 23.6824L16.5501 23.2079C15.6606 25.0463 13.4492 25.8157 11.6106 24.9264C9.77205 24.0371 9.00245 21.8258 9.89157 19.9871L8.90912 19.5119L8.90943 19.5113L9.90526 19.9929L16.0464 7.29671C16.2869 6.79954 16.0788 6.20154 15.5817 5.96106L9.09158 2.8218Z"
    fill="url(#paint0_linear_1051_10592)"
  />
  <defs>
    <linearGradient id="paint0_linear_1051_10592" x1="4.97235" y1="9.04052" x2="28.124" y2="20.3981" gradientUnits="userSpaceOnUse">
      <stop offset="0.0833333" stop-color="#E30052" />
      <stop offset="0.989583" stop-color="#6840C2" />
    </linearGradient>
  </defs>
</svg>