<svg viewBox="0 0 56 56" fill="none" xmlns="http://www.w3.org/2000/svg">
  <path fill-rule="evenodd" clip-rule="evenodd" d="M8.87859 36.5384L19.1478 46.8076C19.6094 47.2692 20.3017 47.2692 20.7632 46.8076L46.3786 21.0768C46.8401 20.6153 46.8401 19.923 46.3786 19.4615L36.2247 9.30762C35.7632 8.84608 35.0709 8.84608 34.6094 9.30762L8.87859 35.0384C8.41706 35.4999 8.41706 36.1922 8.87859 36.5384ZM39.5709 4.57685C39.1094 5.03839 39.1094 5.73069 39.5709 6.19223L49.7247 16.3461C50.1863 16.8076 50.8786 16.8076 51.3401 16.3461L54.2247 13.4615C56.0709 11.7307 56.0709 8.96146 54.2247 7.11531L48.8017 1.69223C46.9555 -0.153921 44.0709 -0.153921 42.2247 1.69223L39.5709 4.57685ZM0.340133 53.6153C0.109364 54.7692 1.14783 55.8076 2.30167 55.5768L14.8786 52.5768C15.3401 52.4615 15.6863 52.2307 15.9171 51.9999L16.1478 51.7692C16.3786 51.5384 16.494 50.7307 16.0324 50.2692L5.64783 39.8845C5.18629 39.423 4.3786 39.5384 4.14783 39.7692L3.91706 39.9999C3.5709 40.3461 3.45552 40.6922 3.34013 41.0384L0.340133 53.6153Z" fill="#706E6B"/>
</svg>
