<svg viewBox="0 0 48 56" fill="none" xmlns="http://www.w3.org/2000/svg">
  <path fill-rule="evenodd" clip-rule="evenodd" d="M45.2308 19.923H32.3077C29.3077 19.923 27.4616 18.0768 27.4616 15.0768V2.15377C27.4616 1.11531 26.6539 0.307617 25.6154 0.307617H6.46156C3.46156 0.307617 0.923096 2.84608 0.923096 5.84608V50.1538C0.923096 53.1538 3.46156 55.6922 6.46156 55.6922H41.5385C44.5385 55.6922 47.0769 53.1538 47.0769 50.1538V21.7692C47.0769 20.7307 46.2693 19.923 45.2308 19.923ZM46.7308 12.8845L34.5 0.653771C34.2692 0.423002 33.8077 0.307617 33.4616 0.307617C32.7693 0.307617 32.0769 0.88454 32.0769 1.57685V11.3845C32.0769 13.4615 33.9231 15.3076 36 15.3076H45.8077C46.5 15.3076 47.0769 14.6153 47.0769 13.923C47.0769 13.5768 46.9616 13.1153 46.7308 12.8845Z" fill="#706E6B"/>
</svg>
