<svg viewBox="0 0 52 52" fill="none" xmlns="http://www.w3.org/2000/svg">
  <path fill-rule="evenodd" clip-rule="evenodd" d="M8.11536 20.2309H2.34613C1.42305 20.2309 0.615356 21.0386 0.615356 21.9616V48.5001C0.615356 49.4232 1.42305 50.2309 2.34613 50.2309H5.23074C7.7692 50.2309 9.84613 48.1539 9.84613 45.6155V21.9616C9.84613 21.0386 9.03843 20.2309 8.11536 20.2309ZM46.7692 21.3847H39.8461C37.3077 21.3847 35.2307 19.3078 35.2307 16.7693V5.23086C35.2307 2.6924 33.1538 0.615479 30.6154 0.615479H27.7307C26.8077 0.615479 26 1.42317 26 2.34625V9.26933C26 15.3847 21.7307 21.3847 16.1923 21.3847C15.2692 21.3847 14.4615 22.1924 14.4615 23.1155V46.1924C14.4615 47.1155 15.1538 47.9232 16.0769 47.9232C23.923 48.2693 26.5769 51.3847 34.7692 51.3847C43.423 51.3847 51.3846 50.4616 51.3846 40.4232V26.0001C51.3846 23.4616 49.3077 21.3847 46.7692 21.3847Z" fill="#706E6B"/>
</svg>
