<svg viewBox="0 0 53 60" fill="none" xmlns="http://www.w3.org/2000/svg">
  <path d="M4.78125 0C2.15625 0 0 2.15625 0 4.78125V55.2188C0 57.8438 2.15625 60 4.78125 60H47.7188C50.3438 60 52.5 57.8438 52.5 55.2188V19.0312L34.7812 0H4.78125V0Z" fill="#706E6B"/>
  <path d="M52.5 19.125V20.0625H40.5C40.5 20.0625 34.5937 18.8438 34.7812 13.7812C34.7812 13.7812 34.9687 19.125 40.4062 19.125H52.5Z" fill="#706E6B"/>
  <path opacity="0.5" d="M34.7812 0V13.6875C34.7812 15.2812 35.8125 19.125 40.5 19.125H52.5L34.7812 0Z" fill="white"/>
  <path fill-rule="evenodd" clip-rule="evenodd" d="M13.9688 45.9375H10.875V49.7812C10.875 50.1562 10.5938 50.4375 10.125 50.4375C9.75 50.4375 9.46875 50.1562 9.46875 49.7812V40.2188C9.46875 39.6562 9.9375 39.1875 10.5 39.1875H13.9688C16.2188 39.1875 17.5312 40.7812 17.5312 42.5625C17.5312 44.4375 16.2188 45.9375 13.9688 45.9375ZM13.875 40.4062H10.875V44.7188H13.875C15.1875 44.7188 16.125 43.875 16.125 42.5625C16.125 41.25 15.1875 40.4062 13.875 40.4062ZM20.8125 50.4375H23.625C27.1875 50.4375 29.4375 48 29.4375 44.8125C29.4375 41.625 27.0938 39.1875 23.625 39.1875H20.8125C20.25 39.1875 19.7812 39.6562 19.7812 40.2188V49.4062C19.7812 49.9688 20.25 50.4375 20.8125 50.4375ZM23.625 40.4062H21.1875V49.125H23.625C26.3438 49.125 27.9375 47.1562 27.9375 44.7188C28.0312 42.375 26.4375 40.4062 23.625 40.4062ZM33.4688 40.4062H38.9062C39.2812 40.4062 39.5625 40.125 39.4688 39.8438C39.4688 39.4688 39.2812 39.1875 38.9062 39.1875H33.0938C32.5312 39.1875 32.0625 39.6562 32.0625 40.2188V49.7812C32.0625 50.1562 32.3438 50.4375 32.7188 50.4375C33.1875 50.4375 33.4688 50.1562 33.4688 49.7812V45.2812H38.8125C39.0938 45.2812 39.375 45.0938 39.375 44.7188C39.375 44.3438 39.1875 44.0625 38.8125 44.0625H33.4688V40.4062Z" fill="white"/>
</svg>
