<svg viewBox="0 0 52 40" fill="none" xmlns="http://www.w3.org/2000/svg">
  <path d="M26.0422 0.538574C32.1244 0.538574 37.0239 5.32735 37.0239 11.272V13.9967C33.3915 13.5838 29.6746 13.4187 26.0422 13.4187C22.4098 13.4187 18.6929 13.5838 15.0605 13.9967V11.272C15.0605 5.40991 19.96 0.538574 26.0422 0.538574ZM45.9782 31.9133L47.0764 22.5009C49.5261 22.9137 51.3846 24.8953 51.3846 27.1245C51.3846 29.7666 48.9348 31.9133 45.9782 31.9133ZM6.02173 31.9133C3.06512 31.9133 0.615356 29.7666 0.615356 27.1245C0.615356 24.8127 2.4738 22.9137 4.92356 22.5009L6.02173 31.9133ZM42.1769 16.3085C36.6015 15.7305 31.2796 15.4828 26.1267 15.4828C20.9737 15.4828 15.5674 15.7305 10.0765 16.3085C8.21807 16.4736 6.86648 18.1249 7.1199 19.8588L8.80939 35.8764C8.97834 37.3626 10.161 38.6011 11.766 38.7662C16.4966 39.3441 21.3116 39.5918 26.2112 39.5918C31.1107 39.5918 35.9257 39.3441 40.6563 38.7662C42.1769 38.6011 43.444 37.3626 43.6129 35.8764L45.3024 19.8588C45.3024 18.0424 44.0353 16.4736 42.1769 16.3085ZM16.75 30.8399C15.3984 30.8399 14.3847 29.5189 14.3847 27.785C14.3847 26.0512 15.4829 24.7301 16.75 24.7301C18.0171 24.7301 19.1153 26.0512 19.1153 27.785C19.1153 29.5189 18.1016 30.8399 16.75 30.8399ZM30.8573 34.2251C30.8573 34.3902 30.7728 34.5554 30.6883 34.6379C30.6038 34.7205 30.4349 34.8031 30.2659 34.8031H21.903C21.734 34.8031 21.5651 34.7205 21.4806 34.6379C21.3961 34.5554 21.3116 34.3902 21.3116 34.2251V32.7389C21.3116 32.4087 21.5651 32.161 21.903 32.161H22.0719C22.4098 32.161 22.6632 32.4087 22.6632 32.7389V33.482H29.5057V32.7389C29.5057 32.4087 29.7591 32.161 30.097 32.161H30.2659C30.6038 32.161 30.8573 32.4087 30.8573 32.7389V34.2251ZM35.3344 30.8399C33.9828 30.8399 32.9691 29.5189 32.9691 27.785C32.9691 26.0512 34.0673 24.7301 35.3344 24.7301C36.6015 24.7301 37.6997 26.0512 37.6997 27.785C37.6997 29.5189 36.686 30.8399 35.3344 30.8399Z" fill="#005FB2"/>
</svg>
