<svg width="16" height="16" viewBox="0 0 16 16" fill="none" xmlns="http://www.w3.org/2000/svg">
  <path fill-rule="evenodd" clip-rule="evenodd" d="M0.646126 13.6924L1.99997 8.67697H7.72305C7.87689 8.67697 8.03074 8.52313 8.03074 8.36928V7.75389C8.03074 7.60005 7.87689 7.4462 7.72305 7.4462H1.99997L0.676895 2.52312C0.646126 2.46159 0.615356 2.36928 0.615356 2.27697C0.615356 2.06159 0.830741 1.8462 1.07689 1.87697C1.13843 1.87697 1.1692 1.90774 1.23074 1.90774L15.0769 7.60005C15.2615 7.66159 15.3846 7.8462 15.3846 8.03082C15.3846 8.21543 15.2615 8.36928 15.1077 8.43082L1.23074 14.277C1.1692 14.3077 1.10766 14.3077 1.04613 14.3077C0.799972 14.277 0.615356 14.0924 0.615356 13.8462C0.615356 13.7847 0.615356 13.7539 0.646126 13.6924Z" fill="white"/>
</svg>
