<svg viewBox="0 0 16 16" fill="none" xmlns="http://www.w3.org/2000/svg">
  <path fill-rule="evenodd" clip-rule="evenodd" d="M8.10496 5.846C6.90496 5.846 5.95111 6.79985 5.95111 7.99985C5.95111 9.19985 6.90496 10.1537 8.10496 10.1537C9.30496 10.1537 10.2588 9.19985 10.2588 7.99985C10.2588 6.79985 9.30496 5.846 8.10496 5.846ZM14.5665 9.93831L13.428 8.98446C13.4896 8.646 13.5203 8.27677 13.5203 7.93831C13.5203 7.59985 13.4896 7.23062 13.428 6.89216L14.5665 5.93831C14.9357 5.63062 15.0588 5.07677 14.8127 4.646L14.3203 3.78447C14.1357 3.47677 13.7973 3.29216 13.428 3.29216C13.305 3.29216 13.1819 3.32293 13.0896 3.3537L11.6742 3.87677C11.1203 3.38446 10.505 3.046 9.8588 2.83062L9.61265 1.38447C9.52034 0.892157 9.08957 0.615234 8.59727 0.615234H7.61265C7.12034 0.615234 6.68957 0.892157 6.59727 1.38447L6.35111 2.79985C5.67419 3.01523 5.0588 3.38446 4.50496 3.846L3.08957 3.32293C2.9665 3.29216 2.87419 3.26139 2.75111 3.26139C2.38188 3.26139 2.04342 3.446 1.8588 3.7537L1.3665 4.61523C1.12034 5.046 1.21265 5.59985 1.61265 5.90754L2.75111 6.86139C2.68957 7.19985 2.6588 7.56908 2.6588 7.90754C2.6588 8.27677 2.68957 8.61523 2.75111 8.9537L1.61265 9.90754C1.24342 10.2152 1.12034 10.7691 1.3665 11.1998L1.8588 12.0614C2.04342 12.3691 2.38188 12.5537 2.75111 12.5537C2.87419 12.5537 2.99727 12.5229 3.08957 12.4922L4.50496 11.9691C5.0588 12.4614 5.67419 12.7998 6.32034 13.0152L6.5665 14.4922C6.6588 14.9845 7.0588 15.3229 7.58188 15.3229H8.5665C9.0588 15.3229 9.48957 14.9537 9.58188 14.4614L9.82804 12.9845C10.5357 12.7383 11.1819 12.3691 11.7357 11.846L13.0588 12.3691C13.1819 12.3998 13.305 12.4306 13.428 12.4306C13.7973 12.4306 14.1357 12.246 14.3203 11.9383L14.7819 11.1383C15.0588 10.7998 14.9357 10.246 14.5665 9.93831ZM8.10496 11.3845C6.22803 11.3845 4.72034 9.87677 4.72034 7.99985C4.72034 6.12293 6.22803 4.61523 8.10496 4.61523C9.98188 4.61523 11.4896 6.12293 11.4896 7.99985C11.4896 9.87677 9.98188 11.3845 8.10496 11.3845Z" fill="#706E6B"/>
</svg>
